<?xml version="1.0" encoding="iso-8859-1"?>
<!-- Generator: Adobe Illustrator 19.0.0, SVG Export Plug-In . SVG Version: 6.00 Build 0)  -->
<svg xmlns="http://www.w3.org/2000/svg" xmlns:xlink="http://www.w3.org/1999/xlink" version="1.1" id="Capa_1" x="0px" y="0px" viewBox="0 0 452.986 452.986" style="enable-background:new 0 0 452.986 452.986;" xml:space="preserve" width="512px" height="512px">
<g>
	<g>
		<g>
			<path d="M403.87,0H49.095C22.11,0,0,22.11,0,49.117v354.796c0,26.963,22.11,49.074,49.095,49.074H403.87     c27.007,0,49.117-22.11,49.117-49.074V49.117C452.986,22.11,430.876,0,403.87,0z M415.82,410.859H37.188V101.836H415.82V410.859z     " fill="#FFFFFF"/>
			<circle cx="124.765" cy="169.029" r="36.843" fill="#FFFFFF"/>
			<rect x="192.282" y="153.692" width="161.716" height="30.695" fill="#FFFFFF"/>
			<circle cx="124.765" cy="259.065" r="36.843" fill="#FFFFFF"/>
			<rect x="192.282" y="243.728" width="161.716" height="30.674" fill="#FFFFFF"/>
			<circle cx="124.765" cy="349.123" r="36.843" fill="#FFFFFF"/>
			<rect x="192.282" y="333.765" width="161.716" height="30.674" fill="#FFFFFF"/>
		</g>
	</g>
	<g>
	</g>
	<g>
	</g>
	<g>
	</g>
	<g>
	</g>
	<g>
	</g>
	<g>
	</g>
	<g>
	</g>
	<g>
	</g>
	<g>
	</g>
	<g>
	</g>
	<g>
	</g>
	<g>
	</g>
	<g>
	</g>
	<g>
	</g>
	<g>
	</g>
</g>
<g>
</g>
<g>
</g>
<g>
</g>
<g>
</g>
<g>
</g>
<g>
</g>
<g>
</g>
<g>
</g>
<g>
</g>
<g>
</g>
<g>
</g>
<g>
</g>
<g>
</g>
<g>
</g>
<g>
</g>
</svg>
